<mxfile host="app.diagrams.net" agent="Mozilla/5.0 (Macintosh; Intel Mac OS X 10_15_7) AppleWebKit/537.36 (KHTML, like Gecko) Chrome/133.0.0.0 Safari/537.36" version="26.0.11">
  <diagram name="Page-1" id="F3jZBzzuXcuWG72Ox5Q9">
    <mxGraphModel dx="978" dy="515" grid="0" gridSize="10" guides="1" tooltips="1" connect="1" arrows="1" fold="1" page="1" pageScale="1" pageWidth="850" pageHeight="1100" math="0" shadow="0">
      <root>
        <mxCell id="0" />
        <mxCell id="1" parent="0" />
        <mxCell id="x_R9Xr7n-lmfxWa0zsh1-26" value="" style="rounded=0;whiteSpace=wrap;html=1;" parent="1" vertex="1">
          <mxGeometry x="560" y="309.5" width="120" height="129.5" as="geometry" />
        </mxCell>
        <mxCell id="x_R9Xr7n-lmfxWa0zsh1-20" value="" style="rounded=0;whiteSpace=wrap;html=1;" parent="1" vertex="1">
          <mxGeometry x="389" y="310" width="120" height="335" as="geometry" />
        </mxCell>
        <mxCell id="x_R9Xr7n-lmfxWa0zsh1-3" value="Customers" style="rounded=0;whiteSpace=wrap;html=1;" parent="1" vertex="1">
          <mxGeometry x="560" y="234" width="120" height="60" as="geometry" />
        </mxCell>
        <mxCell id="x_R9Xr7n-lmfxWa0zsh1-4" value="Organization&lt;div&gt;&lt;span style=&quot;background-color: transparent; color: light-dark(rgb(0, 0, 0), rgb(255, 255, 255));&quot;&gt;Selected&amp;nbsp;&lt;/span&gt;&lt;/div&gt;&lt;div&gt;&lt;span style=&quot;background-color: transparent; color: light-dark(rgb(0, 0, 0), rgb(255, 255, 255));&quot;&gt;Parts&lt;/span&gt;&lt;/div&gt;" style="rounded=0;whiteSpace=wrap;html=1;" parent="1" vertex="1">
          <mxGeometry x="389" y="234" width="120" height="60" as="geometry" />
        </mxCell>
        <mxCell id="x_R9Xr7n-lmfxWa0zsh1-5" value="Supplier" style="rounded=0;whiteSpace=wrap;html=1;" parent="1" vertex="1">
          <mxGeometry x="218" y="234" width="120" height="60" as="geometry" />
        </mxCell>
        <mxCell id="x_R9Xr7n-lmfxWa0zsh1-9" value="" style="rounded=0;whiteSpace=wrap;html=1;" parent="1" vertex="1">
          <mxGeometry x="218" y="310" width="120" height="270" as="geometry" />
        </mxCell>
        <mxCell id="x_R9Xr7n-lmfxWa0zsh1-10" value="&lt;font style=&quot;font-size: 8px;&quot;&gt;Print on Demand&lt;/font&gt;&lt;div&gt;&lt;font style=&quot;font-size: 8px;&quot;&gt;Services&lt;/font&gt;&lt;/div&gt;" style="ellipse;whiteSpace=wrap;html=1;" parent="1" vertex="1">
          <mxGeometry x="235" y="323" width="86" height="49" as="geometry" />
        </mxCell>
        <mxCell id="x_R9Xr7n-lmfxWa0zsh1-12" value="&lt;span style=&quot;font-size: 8px;&quot;&gt;Logistics&lt;/span&gt;" style="ellipse;whiteSpace=wrap;html=1;" parent="1" vertex="1">
          <mxGeometry x="235" y="404" width="86" height="49" as="geometry" />
        </mxCell>
        <mxCell id="x_R9Xr7n-lmfxWa0zsh1-13" value="&lt;font style=&quot;font-size: 8px;&quot;&gt;Payment Provider&lt;/font&gt;" style="ellipse;whiteSpace=wrap;html=1;" parent="1" vertex="1">
          <mxGeometry x="235" y="485" width="86" height="49" as="geometry" />
        </mxCell>
        <mxCell id="x_R9Xr7n-lmfxWa0zsh1-15" value="&lt;font style=&quot;font-size: 8px;&quot;&gt;User Data&lt;/font&gt;&lt;div&gt;&lt;font style=&quot;font-size: 8px;&quot;&gt;Management&lt;/font&gt;&lt;/div&gt;&lt;div&gt;&lt;font style=&quot;font-size: 8px;&quot;&gt;(CustomThread)&lt;/font&gt;&lt;/div&gt;" style="ellipse;whiteSpace=wrap;html=1;" parent="1" vertex="1">
          <mxGeometry x="404.5" y="317" width="89" height="52" as="geometry" />
        </mxCell>
        <mxCell id="x_R9Xr7n-lmfxWa0zsh1-16" value="&lt;font style=&quot;font-size: 8px;&quot;&gt;Product Development&amp;nbsp;&lt;/font&gt;&lt;div&gt;&lt;span style=&quot;font-size: 8px;&quot;&gt;Team&lt;/span&gt;&lt;/div&gt;&lt;div&gt;&lt;span style=&quot;font-size: 8px;&quot;&gt;(CustomThread)&lt;/span&gt;&lt;/div&gt;" style="ellipse;whiteSpace=wrap;html=1;" parent="1" vertex="1">
          <mxGeometry x="402.5" y="375" width="93" height="53" as="geometry" />
        </mxCell>
        <mxCell id="x_R9Xr7n-lmfxWa0zsh1-17" value="&lt;font style=&quot;font-size: 8px;&quot;&gt;Finance Team&lt;/font&gt;&lt;div&gt;&lt;font style=&quot;font-size: 8px;&quot;&gt;(CustomThread)&lt;/font&gt;&lt;/div&gt;" style="ellipse;whiteSpace=wrap;html=1;" parent="1" vertex="1">
          <mxGeometry x="406" y="444" width="86" height="49" as="geometry" />
        </mxCell>
        <mxCell id="x_R9Xr7n-lmfxWa0zsh1-18" value="&lt;span style=&quot;font-size: 8px;&quot;&gt;Customer Support&amp;nbsp;&lt;/span&gt;&lt;div&gt;&lt;span style=&quot;font-size: 8px;&quot;&gt;Team&lt;/span&gt;&lt;/div&gt;&lt;div&gt;&lt;span style=&quot;font-size: 8px;&quot;&gt;(CustomThread)&lt;/span&gt;&lt;/div&gt;" style="ellipse;whiteSpace=wrap;html=1;" parent="1" vertex="1">
          <mxGeometry x="402.5" y="506.5" width="89" height="54" as="geometry" />
        </mxCell>
        <mxCell id="x_R9Xr7n-lmfxWa0zsh1-21" value="&lt;span style=&quot;font-size: 8px;&quot;&gt;Advertising&lt;/span&gt;&lt;div&gt;&lt;span style=&quot;font-size: 8px;&quot;&gt;Team&lt;/span&gt;&lt;/div&gt;&lt;div&gt;&lt;span style=&quot;font-size: 8px;&quot;&gt;(CustomThread)&lt;/span&gt;&lt;/div&gt;" style="ellipse;whiteSpace=wrap;html=1;" parent="1" vertex="1">
          <mxGeometry x="404.5" y="575" width="89" height="51" as="geometry" />
        </mxCell>
        <mxCell id="x_R9Xr7n-lmfxWa0zsh1-24" value="&lt;span style=&quot;font-size: 8px;&quot;&gt;Designer&lt;/span&gt;" style="ellipse;whiteSpace=wrap;html=1;" parent="1" vertex="1">
          <mxGeometry x="577" y="375" width="86" height="49" as="geometry" />
        </mxCell>
        <mxCell id="x_R9Xr7n-lmfxWa0zsh1-25" value="&lt;span style=&quot;font-size: 8px;&quot;&gt;User&lt;/span&gt;" style="ellipse;whiteSpace=wrap;html=1;" parent="1" vertex="1">
          <mxGeometry x="577" y="314" width="86" height="49" as="geometry" />
        </mxCell>
        <mxCell id="x_R9Xr7n-lmfxWa0zsh1-27" value="" style="endArrow=classic;html=1;rounded=0;exitX=1;exitY=0.5;exitDx=0;exitDy=0;" parent="1" source="x_R9Xr7n-lmfxWa0zsh1-10" target="x_R9Xr7n-lmfxWa0zsh1-16" edge="1">
          <mxGeometry width="50" height="50" relative="1" as="geometry">
            <mxPoint x="513" y="479" as="sourcePoint" />
            <mxPoint x="563" y="429" as="targetPoint" />
          </mxGeometry>
        </mxCell>
        <mxCell id="x_R9Xr7n-lmfxWa0zsh1-29" value="" style="endArrow=classic;html=1;rounded=0;exitX=1;exitY=0.5;exitDx=0;exitDy=0;" parent="1" source="x_R9Xr7n-lmfxWa0zsh1-12" target="x_R9Xr7n-lmfxWa0zsh1-18" edge="1">
          <mxGeometry width="50" height="50" relative="1" as="geometry">
            <mxPoint x="513" y="479" as="sourcePoint" />
            <mxPoint x="563" y="429" as="targetPoint" />
          </mxGeometry>
        </mxCell>
        <mxCell id="x_R9Xr7n-lmfxWa0zsh1-30" value="" style="endArrow=classic;html=1;rounded=0;exitX=1;exitY=0.5;exitDx=0;exitDy=0;entryX=0;entryY=0.5;entryDx=0;entryDy=0;" parent="1" source="x_R9Xr7n-lmfxWa0zsh1-12" target="x_R9Xr7n-lmfxWa0zsh1-17" edge="1">
          <mxGeometry width="50" height="50" relative="1" as="geometry">
            <mxPoint x="321" y="467" as="sourcePoint" />
            <mxPoint x="371" y="417" as="targetPoint" />
          </mxGeometry>
        </mxCell>
        <mxCell id="x_R9Xr7n-lmfxWa0zsh1-31" value="" style="endArrow=classic;html=1;rounded=0;exitX=1;exitY=0.5;exitDx=0;exitDy=0;entryX=0.06;entryY=0.666;entryDx=0;entryDy=0;entryPerimeter=0;" parent="1" source="x_R9Xr7n-lmfxWa0zsh1-13" target="x_R9Xr7n-lmfxWa0zsh1-17" edge="1">
          <mxGeometry width="50" height="50" relative="1" as="geometry">
            <mxPoint x="513" y="479" as="sourcePoint" />
            <mxPoint x="563" y="429" as="targetPoint" />
          </mxGeometry>
        </mxCell>
        <mxCell id="x_R9Xr7n-lmfxWa0zsh1-34" value="" style="endArrow=classic;html=1;rounded=0;exitX=1;exitY=0.5;exitDx=0;exitDy=0;entryX=0.032;entryY=0.618;entryDx=0;entryDy=0;entryPerimeter=0;" parent="1" source="x_R9Xr7n-lmfxWa0zsh1-15" target="x_R9Xr7n-lmfxWa0zsh1-25" edge="1">
          <mxGeometry width="50" height="50" relative="1" as="geometry">
            <mxPoint x="513" y="479" as="sourcePoint" />
            <mxPoint x="563" y="429" as="targetPoint" />
          </mxGeometry>
        </mxCell>
        <mxCell id="x_R9Xr7n-lmfxWa0zsh1-35" value="" style="endArrow=classic;html=1;rounded=0;entryX=0.014;entryY=0.408;entryDx=0;entryDy=0;entryPerimeter=0;" parent="1" source="x_R9Xr7n-lmfxWa0zsh1-15" target="x_R9Xr7n-lmfxWa0zsh1-24" edge="1">
          <mxGeometry width="50" height="50" relative="1" as="geometry">
            <mxPoint x="502" y="353" as="sourcePoint" />
            <mxPoint x="590" y="355" as="targetPoint" />
          </mxGeometry>
        </mxCell>
        <mxCell id="x_R9Xr7n-lmfxWa0zsh1-36" value="" style="endArrow=classic;html=1;rounded=0;" parent="1" source="x_R9Xr7n-lmfxWa0zsh1-16" target="x_R9Xr7n-lmfxWa0zsh1-24" edge="1">
          <mxGeometry width="50" height="50" relative="1" as="geometry">
            <mxPoint x="512" y="363" as="sourcePoint" />
            <mxPoint x="600" y="365" as="targetPoint" />
          </mxGeometry>
        </mxCell>
        <mxCell id="x_R9Xr7n-lmfxWa0zsh1-37" value="" style="endArrow=classic;html=1;rounded=0;entryX=0;entryY=1;entryDx=0;entryDy=0;" parent="1" source="x_R9Xr7n-lmfxWa0zsh1-17" target="x_R9Xr7n-lmfxWa0zsh1-25" edge="1">
          <mxGeometry width="50" height="50" relative="1" as="geometry">
            <mxPoint x="522" y="373" as="sourcePoint" />
            <mxPoint x="610" y="375" as="targetPoint" />
          </mxGeometry>
        </mxCell>
        <mxCell id="x_R9Xr7n-lmfxWa0zsh1-38" value="" style="endArrow=classic;html=1;rounded=0;exitX=0.977;exitY=0.423;exitDx=0;exitDy=0;entryX=0.064;entryY=0.772;entryDx=0;entryDy=0;entryPerimeter=0;exitPerimeter=0;" parent="1" source="x_R9Xr7n-lmfxWa0zsh1-17" target="x_R9Xr7n-lmfxWa0zsh1-24" edge="1">
          <mxGeometry width="50" height="50" relative="1" as="geometry">
            <mxPoint x="532" y="383" as="sourcePoint" />
            <mxPoint x="620" y="385" as="targetPoint" />
          </mxGeometry>
        </mxCell>
        <mxCell id="x_R9Xr7n-lmfxWa0zsh1-39" value="" style="endArrow=classic;html=1;rounded=0;exitX=1;exitY=0.5;exitDx=0;exitDy=0;entryX=0.5;entryY=1;entryDx=0;entryDy=0;" parent="1" source="x_R9Xr7n-lmfxWa0zsh1-18" target="x_R9Xr7n-lmfxWa0zsh1-24" edge="1">
          <mxGeometry width="50" height="50" relative="1" as="geometry">
            <mxPoint x="542" y="393" as="sourcePoint" />
            <mxPoint x="630" y="395" as="targetPoint" />
          </mxGeometry>
        </mxCell>
        <mxCell id="x_R9Xr7n-lmfxWa0zsh1-40" value="" style="endArrow=classic;html=1;rounded=0;exitX=0.927;exitY=0.216;exitDx=0;exitDy=0;entryX=0;entryY=0.5;entryDx=0;entryDy=0;exitPerimeter=0;" parent="1" source="x_R9Xr7n-lmfxWa0zsh1-18" target="x_R9Xr7n-lmfxWa0zsh1-25" edge="1">
          <mxGeometry width="50" height="50" relative="1" as="geometry">
            <mxPoint x="552" y="403" as="sourcePoint" />
            <mxPoint x="640" y="405" as="targetPoint" />
          </mxGeometry>
        </mxCell>
        <mxCell id="x_R9Xr7n-lmfxWa0zsh1-41" value="" style="endArrow=classic;html=1;rounded=0;exitX=0.946;exitY=0.339;exitDx=0;exitDy=0;entryX=0.5;entryY=1;entryDx=0;entryDy=0;exitPerimeter=0;" parent="1" source="x_R9Xr7n-lmfxWa0zsh1-21" target="x_R9Xr7n-lmfxWa0zsh1-24" edge="1">
          <mxGeometry width="50" height="50" relative="1" as="geometry">
            <mxPoint x="562" y="413" as="sourcePoint" />
            <mxPoint x="650" y="415" as="targetPoint" />
          </mxGeometry>
        </mxCell>
      </root>
    </mxGraphModel>
  </diagram>
</mxfile>
